<svg width="218" height="218" viewBox="0 0 218 218" fill="none" xmlns="http://www.w3.org/2000/svg">
<path d="M212 109.5C212 158.88 167.107 200.472 105.979 213C93.2371 210.387 81.2081 206.503 70.1341 201.551C28.1055 182.77 0 148.574 0 109.5C0 70.4259 28.1055 36.2285 70.1341 17.4485C81.2081 12.4966 93.2371 8.61348 105.979 6C167.105 18.5278 212 60.1201 212 109.5Z" fill="#4CAF50"/>
<path d="M108.996 0.00701904C48.897 0.00701904 0.00402832 48.901 0.00402832 108.999C0.00402832 169.097 48.897 217.992 108.996 217.992C169.095 217.992 217.988 169.098 217.988 109C217.988 48.902 169.094 0.00701904 108.996 0.00701904ZM108.996 202.992C57.168 202.992 15.004 160.827 15.004 109C15.004 57.173 57.168 15.007 108.996 15.007C160.824 15.007 202.988 57.172 202.988 108.999C202.988 160.826 160.824 202.992 108.996 202.992Z" fill="#434A52"/>
<path d="M185.067 143.75C187.684 138.043 189.653 132.033 190.918 125.887L176.227 122.862C175.19 127.898 173.577 132.822 171.433 137.499L185.067 143.75Z" fill="white"/>
<path d="M108.996 177.636C98.5279 177.636 88.4739 175.33 79.1149 170.783L72.5599 184.275C83.9799 189.823 96.2389 192.635 108.995 192.635C131.688 192.635 152.938 183.666 168.831 167.382L158.097 156.905C145.051 170.274 127.613 177.636 108.996 177.636Z" fill="white"/>
<path d="M27.433 90.448L42.06 93.774C43.117 89.126 44.67 84.573 46.678 80.243L33.069 73.934C30.62 79.22 28.724 84.775 27.433 90.448Z" fill="white"/>
<path d="M121.994 41.597L124.828 26.867C119.641 25.869 114.314 25.363 108.996 25.363C86.065 25.363 63.874 34.967 48.11 51.711L59.032 61.992C72.163 48.045 89.906 40.363 108.996 40.363C113.365 40.363 117.738 40.778 121.994 41.597Z" fill="white"/>
</svg>
