<svg width="32" height="32" viewBox="0 0 32 32" fill="none" xmlns="http://www.w3.org/2000/svg">
<path fill-rule="evenodd" clip-rule="evenodd" d="M15.294 0.294991L5.30302 10.265C4.64302 10.899 5.14102 12.013 6.03702 11.988H11.013C11.013 11.992 11.011 11.996 11.011 12V31C11.011 31.55 11.461 32 12.011 32H20.011C20.561 32 21.011 31.55 21.011 31V12C21.011 11.996 21.009 11.992 21.009 11.988H25.981C26.873 12.012 27.357 10.906 26.723 10.273L16.724 0.295991C16.328 -0.0980087 15.688 -0.0980087 15.294 0.294991ZM23.574 9.98299H19.01V9.99999V11V11.988H19.012C19.012 11.992 19.01 11.996 19.01 12V13V30H13.01V13V12C13.01 11.996 13.008 11.992 13.008 11.988H13.01V11V9.99999V9.98299H8.44202L16.008 2.43299L23.574 9.98299Z" fill="white"/>
</svg>
