<svg width="72" height="72" viewBox="0 0 72 72" fill="none" xmlns="http://www.w3.org/2000/svg">
<path fill-rule="evenodd" clip-rule="evenodd" d="M8 72H64C68.4183 72 72 68.4183 72 64V8C72 3.58172 68.4183 0 64 0H8C3.58172 0 0 3.58172 0 8V64C0 68.4183 3.58172 72 8 72Z" fill="#6D48E5"/>
<path fill-rule="evenodd" clip-rule="evenodd" d="M36 12C42.518 12 43.3353 12.0276 45.8952 12.1444C48.4497 12.2609 50.1943 12.6667 51.7209 13.26C53.2991 13.8733 54.6375 14.6939 55.9719 16.0281C57.3061 17.3625 58.1267 18.7009 58.7401 20.2791C59.3333 21.8057 59.7391 23.5503 59.8556 26.1048C59.9724 28.6647 60 29.482 60 36C60 42.518 59.9724 43.3353 59.8556 45.8952C59.7391 48.4497 59.3333 50.1943 58.7401 51.7209C58.1267 53.2991 57.3061 54.6375 55.9719 55.9719C54.6375 57.3061 53.2991 58.1267 51.7209 58.7401C50.1943 59.3333 48.4497 59.7391 45.8952 59.8556C43.3353 59.9724 42.518 60 36 60C29.482 60 28.6647 59.9724 26.1048 59.8556C23.5503 59.7391 21.8057 59.3333 20.2791 58.7401C18.7009 58.1267 17.3625 57.3061 16.0281 55.9719C14.6939 54.6375 13.8733 53.2991 13.26 51.7209C12.6667 50.1943 12.2609 48.4497 12.1444 45.8952C12.0276 43.3353 12 42.518 12 36C12 29.482 12.0276 28.6647 12.1444 26.1048C12.2609 23.5503 12.6667 21.8057 13.26 20.2791C13.8733 18.7009 14.6939 17.3625 16.0281 16.0281C17.3625 14.6939 18.7009 13.8733 20.2791 13.26C21.8057 12.6667 23.5503 12.2609 26.1048 12.1444C28.6647 12.0276 29.482 12 36 12ZM36 16.3243C29.5917 16.3243 28.8326 16.3488 26.3019 16.4643C23.962 16.571 22.6912 16.9619 21.8455 17.2906C20.7252 17.726 19.9257 18.2461 19.0859 19.0859C18.2461 19.9257 17.726 20.7252 17.2906 21.8455C16.9619 22.6912 16.571 23.962 16.4643 26.3019C16.3488 28.8326 16.3243 29.5917 16.3243 36C16.3243 42.4083 16.3488 43.1674 16.4643 45.6981C16.571 48.038 16.9619 49.3088 17.2906 50.1545C17.726 51.2748 18.2462 52.0743 19.0859 52.9141C19.9257 53.7539 20.7252 54.274 21.8455 54.7094C22.6912 55.0381 23.962 55.429 26.3019 55.5357C28.8324 55.6512 29.5913 55.6757 36 55.6757C42.4087 55.6757 43.1677 55.6512 45.6981 55.5357C48.038 55.429 49.3088 55.0381 50.1545 54.7094C51.2748 54.274 52.0743 53.7539 52.9141 52.9141C53.7539 52.0743 54.274 51.2748 54.7094 50.1545C55.0381 49.3088 55.429 48.038 55.5357 45.6981C55.6512 43.1674 55.6757 42.4083 55.6757 36C55.6757 29.5917 55.6512 28.8326 55.5357 26.3019C55.429 23.962 55.0381 22.6912 54.7094 21.8455C54.274 20.7252 53.7539 19.9257 52.9141 19.0859C52.0743 18.2461 51.2748 17.726 50.1545 17.2906C49.3088 16.9619 48.038 16.571 45.6981 16.4643C43.1674 16.3488 42.4083 16.3243 36 16.3243ZM36 23.6757C42.8066 23.6757 48.3243 29.1934 48.3243 36C48.3243 42.8066 42.8066 48.3243 36 48.3243C29.1934 48.3243 23.6757 42.8066 23.6757 36C23.6757 29.1934 29.1934 23.6757 36 23.6757ZM36 44C40.4183 44 44 40.4183 44 36C44 31.5817 40.4183 28 36 28C31.5817 28 28 31.5817 28 36C28 40.4183 31.5817 44 36 44ZM51.6913 23.1888C51.6913 24.7794 50.4018 26.0687 48.8112 26.0687C47.2207 26.0687 45.9313 24.7794 45.9313 23.1888C45.9313 21.5982 47.2207 20.3087 48.8112 20.3087C50.4018 20.3087 51.6913 21.5982 51.6913 23.1888Z" fill="white"/>
</svg>
