<svg width="72" height="72" viewBox="0 0 72 72" fill="none" xmlns="http://www.w3.org/2000/svg">
<path fill-rule="evenodd" clip-rule="evenodd" d="M8 72H64C68.4183 72 72 68.4183 72 64V8C72 3.58172 68.4183 0 64 0H8C3.58172 0 0 3.58172 0 8V64C0 68.4183 3.58172 72 8 72Z" fill="#6D48E5"/>
<path fill-rule="evenodd" clip-rule="evenodd" d="M18 26.1623V46.5476C18 47.6566 18.8117 48.5555 19.9301 48.5555H51.7448C52.8619 48.5555 53.6748 47.6462 53.6748 46.5476V26.1623C53.6748 24.9453 52.9479 24 51.7448 24H19.9301C18.6805 24 18 24.9685 18 26.1623ZM20.9334 27.9379C20.9334 27.4467 21.2307 27.1657 21.7057 27.1657C21.9995 27.1657 33.5601 34.4911 34.2604 34.9208L36.0697 36.0461C36.6434 35.6617 37.2194 35.333 37.8139 34.9347C39.0275 34.159 49.8252 27.1657 50.1225 27.1657C50.5986 27.1657 50.8947 27.4467 50.8947 27.9379C50.8947 28.4582 49.8925 28.975 49.2399 29.3733C45.1394 31.8724 41.04 34.5968 36.9801 37.1888C36.7432 37.349 36.2845 37.6916 35.9408 37.6394C35.5575 37.5801 23.7937 30.0225 21.6534 28.7636C21.3317 28.5743 20.9334 28.4013 20.9334 27.9379Z" fill="white"/>
</svg>
